<svg xmlns="http://www.w3.org/2000/svg" xmlns:xlink="http://www.w3.org/1999/xlink" width="2000" zoomAndPan="magnify" viewBox="0 0 1500 1499.999933" height="2000" preserveAspectRatio="xMidYMid meet" version="1.0"><defs><g/><clipPath id="6487a758e2"><path d="M 0.378906 0.769531 L 1143 0.769531 L 1143 1085.679688 L 0.378906 1085.679688 Z M 0.378906 0.769531 " clip-rule="nonzero"/></clipPath><clipPath id="0f7f6e974c"><path d="M 1142.746094 51.765625 L 1142.746094 1034.683594 C 1142.746094 1048.207031 1137.375 1061.179688 1127.808594 1070.742188 C 1118.246094 1080.308594 1105.273438 1085.679688 1091.75 1085.679688 L 51.375 1085.679688 C 37.851562 1085.679688 24.878906 1080.308594 15.316406 1070.742188 C 5.75 1061.179688 0.378906 1048.207031 0.378906 1034.683594 L 0.378906 51.765625 C 0.378906 38.242188 5.75 25.269531 15.316406 15.707031 C 24.878906 6.144531 37.851562 0.769531 51.375 0.769531 L 1091.75 0.769531 C 1105.273438 0.769531 1118.246094 6.144531 1127.808594 15.707031 C 1137.375 25.269531 1142.746094 38.242188 1142.746094 51.765625 Z M 1142.746094 51.765625 " clip-rule="nonzero"/></clipPath><clipPath id="642f5e74ea"><path d="M 0.378906 0.769531 L 1142.761719 0.769531 L 1142.761719 1085.679688 L 0.378906 1085.679688 Z M 0.378906 0.769531 " clip-rule="nonzero"/></clipPath><clipPath id="ab6ccf67fc"><path d="M 1142.746094 51.765625 L 1142.746094 1034.683594 C 1142.746094 1048.207031 1137.375 1061.179688 1127.808594 1070.742188 C 1118.246094 1080.308594 1105.273438 1085.679688 1091.75 1085.679688 L 51.375 1085.679688 C 37.851562 1085.679688 24.878906 1080.308594 15.316406 1070.742188 C 5.75 1061.179688 0.378906 1048.207031 0.378906 1034.683594 L 0.378906 51.765625 C 0.378906 38.242188 5.75 25.269531 15.316406 15.707031 C 24.878906 6.144531 37.851562 0.769531 51.375 0.769531 L 1091.75 0.769531 C 1105.273438 0.769531 1118.246094 6.144531 1127.808594 15.707031 C 1137.375 25.269531 1142.746094 38.242188 1142.746094 51.765625 Z M 1142.746094 51.765625 " clip-rule="nonzero"/></clipPath><clipPath id="d2b5826d08"><rect x="0" width="1143" y="0" height="1086"/></clipPath><clipPath id="2a26ebb15f"><rect x="0" width="696" y="0" height="1093"/></clipPath><clipPath id="cbc675c09c"><path d="M 615 153 L 1049 153 L 1049 1282.480469 L 615 1282.480469 Z M 615 153 " clip-rule="nonzero"/></clipPath><clipPath id="184db1a555"><rect x="0" width="434" y="0" height="1130"/></clipPath><clipPath id="921a164b39"><rect x="0" width="1145" y="0" height="1283"/></clipPath></defs><g transform="matrix(1, 0, 0, 1, 129, 194)"><g clip-path="url(#921a164b39)"><g clip-path="url(#6487a758e2)"><g clip-path="url(#0f7f6e974c)"><g transform="matrix(1, 0, 0, 1, 0, 0.000000000000113687)"><g clip-path="url(#d2b5826d08)"><g clip-path="url(#642f5e74ea)"><g clip-path="url(#ab6ccf67fc)"><path fill="#f62440" d="M 0.378906 0.769531 L 1144.617188 0.769531 L 1144.617188 1085.679688 L 0.378906 1085.679688 Z M 0.378906 0.769531 " fill-opacity="1" fill-rule="nonzero"/></g></g></g></g></g></g><path fill="#000000" d="M 822.980469 192.859375 C 822.796875 192.707031 822.59375 192.578125 822.382812 192.464844 L 822.226562 192.386719 C 822.171875 192.359375 822.117188 192.335938 822.066406 192.316406 L 821.902344 192.253906 C 821.847656 192.234375 821.820312 192.226562 821.777344 192.210938 C 808.167969 187.710938 794.621094 183.015625 781.1875 178.015625 C 770.988281 174.269531 762.519531 166.117188 758.464844 156.035156 C 758.15625 155.289062 757.875 154.515625 757.609375 153.746094 C 754.132812 143.382812 749.640625 129.617188 746.175781 119.195312 C 745.789062 118.023438 744.632812 114.628906 744.265625 113.523438 C 744.265625 113.523438 744.105469 113.050781 744.105469 113.050781 C 743.761719 111.898438 742.996094 110.859375 741.925781 110.246094 C 740.214844 109.230469 737.910156 109.410156 736.382812 110.6875 C 735.800781 111.164062 735.335938 111.78125 735.03125 112.46875 C 733.609375 116 732.207031 119.597656 730.828125 123.144531 C 727.058594 132.910156 723.164062 143.164062 719.5 152.957031 C 717.761719 157.574219 715.152344 161.851562 711.820312 165.488281 C 708.078125 169.589844 703.441406 172.871094 698.324219 175.027344 C 697.074219 175.5625 694.179688 176.617188 692.84375 177.136719 C 681.835938 181.332031 667.503906 186.761719 656.550781 190.964844 C 653.46875 192.214844 652.550781 196.15625 654.683594 198.667969 C 655.242188 199.335938 656.011719 199.835938 656.828125 200.117188 C 670.265625 204.890625 683.976562 209.585938 697.460938 214.195312 C 699.878906 215.03125 702.230469 216.09375 704.453125 217.382812 C 711.175781 221.257812 716.691406 227.203125 720.066406 234.1875 C 720.558594 235.207031 721.015625 236.253906 721.421875 237.316406 C 726.425781 250.476562 731.320312 263.808594 735.941406 277.105469 C 736.046875 277.394531 736.191406 277.847656 736.3125 278.125 C 737.144531 280.019531 739.457031 280.761719 741.273438 279.828125 C 741.886719 279.515625 742.40625 279.011719 742.75 278.414062 L 742.835938 278.253906 C 742.867188 278.199219 742.894531 278.144531 742.917969 278.085938 L 742.988281 277.917969 L 743.085938 277.679688 C 748.335938 264.46875 753.824219 251.097656 758.96875 237.863281 C 759.886719 235.527344 761.019531 233.28125 762.34375 231.164062 C 765.65625 225.867188 770.230469 221.375 775.582031 218.15625 C 777.316406 217.105469 779.140625 216.195312 781.011719 215.417969 C 793.769531 210.519531 806.726562 205.273438 819.375 200.054688 L 821.21875 199.296875 L 821.679688 199.105469 L 821.910156 199.011719 C 822.476562 198.789062 823.011719 198.429688 823.410156 197.953125 C 824.6875 196.464844 824.5 194.089844 822.980469 192.859375 Z M 822.980469 192.859375 " fill-opacity="1" fill-rule="nonzero"/><path fill="#000000" d="M 738.875 79.132812 C 739.085938 79.304688 739.339844 79.433594 739.589844 79.519531 C 743.421875 80.816406 747.273438 82.066406 751.125 83.324219 C 752.925781 83.914062 754.65625 84.722656 756.253906 85.75 C 759.882812 88.066406 762.800781 91.5 764.511719 95.457031 C 765.082031 96.800781 765.539062 98.191406 766.039062 99.566406 C 767.046875 102.425781 768.015625 105.304688 768.949219 108.191406 C 769.035156 108.453125 769.1875 108.703125 769.398438 108.898438 C 770.222656 109.683594 771.601562 109.457031 772.140625 108.464844 C 773.78125 104.652344 775.382812 100.824219 776.933594 96.980469 C 779.167969 91.402344 783.53125 86.753906 788.933594 84.132812 C 789.246094 83.988281 789.566406 83.832031 789.886719 83.695312 C 791.953125 82.820312 796.199219 80.976562 798.328125 80.042969 L 801.03125 78.871094 C 801.136719 78.824219 801.300781 78.757812 801.40625 78.707031 C 802.332031 78.265625 802.472656 76.964844 801.667969 76.34375 C 801.53125 76.234375 801.371094 76.160156 801.210938 76.109375 C 797.351562 74.878906 793.523438 73.5625 789.734375 72.148438 C 783.816406 69.980469 779.03125 65.105469 776.914062 59.1875 C 776.753906 58.746094 776.601562 58.289062 776.464844 57.835938 C 775.28125 53.976562 774.078125 49.957031 772.769531 46.148438 C 771.855469 44.128906 768.988281 44.253906 768.207031 46.304688 C 767.097656 49.066406 765.9375 52.132812 764.859375 54.917969 C 764.195312 56.621094 763.558594 58.535156 762.703125 60.148438 C 760.246094 64.898438 756.0625 68.738281 751.085938 70.714844 C 747.726562 72.035156 742.878906 73.882812 739.53125 75.21875 C 739.183594 75.351562 738.871094 75.558594 738.609375 75.847656 C 737.75 76.792969 737.875 78.34375 738.875 79.132812 Z M 738.875 79.132812 " fill-opacity="1" fill-rule="nonzero"/><path fill="#000000" d="M 883.46875 130.292969 C 878.582031 128.792969 873.738281 127.175781 868.957031 125.386719 C 861.585938 122.6875 855.675781 116.535156 853.179688 109.121094 C 852.761719 107.9375 852.019531 105.152344 851.636719 103.890625 C 850.59375 100.277344 849.511719 96.675781 848.359375 93.097656 C 848.324219 92.984375 848.273438 92.835938 848.21875 92.710938 C 846.855469 89.71875 842.613281 89.933594 841.484375 92.992188 C 839.582031 97.679688 837.753906 102.394531 835.957031 107.121094 C 835.558594 108.15625 835.105469 109.171875 834.59375 110.152344 C 832.035156 115.085938 827.980469 119.234375 823.078125 121.867188 C 822.339844 122.265625 821.582031 122.625 820.8125 122.957031 C 820.238281 123.191406 817.265625 124.375 816.597656 124.625 C 813.957031 125.664062 808.285156 127.878906 805.753906 128.925781 C 804.507812 129.488281 803.714844 130.859375 803.839844 132.21875 C 803.925781 133.511719 804.847656 134.703125 806.089844 135.09375 C 810.894531 136.679688 815.730469 138.183594 820.5625 139.703125 C 822.796875 140.410156 824.957031 141.386719 826.945312 142.640625 C 831.476562 145.476562 835.125 149.734375 837.25 154.640625 C 837.417969 155.046875 837.597656 155.46875 837.75 155.886719 C 839.492188 160.632812 841.082031 165.433594 842.589844 170.261719 C 842.625 170.375 842.683594 170.566406 842.722656 170.675781 C 843.371094 172.4375 845.714844 172.804688 846.925781 171.398438 C 847.132812 171.167969 847.28125 170.882812 847.398438 170.601562 L 847.582031 170.179688 C 849.542969 165.679688 851.535156 161.1875 853.390625 156.644531 C 853.828125 155.597656 854.316406 154.574219 854.863281 153.582031 C 855.40625 152.59375 856.003906 151.632812 856.652344 150.710938 C 859.832031 146.191406 864.238281 142.550781 869.277344 140.273438 C 873.851562 138.265625 878.78125 135.976562 883.335938 133.933594 L 883.441406 133.886719 L 883.515625 133.851562 C 883.785156 133.730469 884.035156 133.550781 884.230469 133.316406 C 885.074219 132.324219 884.695312 130.730469 883.46875 130.292969 Z M 883.46875 130.292969 " fill-opacity="1" fill-rule="nonzero"/><g transform="matrix(1, 0, 0, 1, 49, 112)"><g clip-path="url(#2a26ebb15f)"><g fill="#000000" fill-opacity="1"><g transform="translate(101.911008, 639.97212)"><g><path d="M 348.84375 1.921875 C 365.882812 1.921875 380.363281 -2.226562 392.28125 -10.53125 C 404.207031 -18.84375 410.171875 -30.878906 410.171875 -46.640625 C 410.171875 -61.546875 403.890625 -73.894531 391.328125 -83.6875 C 378.765625 -93.488281 362.472656 -98.390625 342.453125 -98.390625 C 330.097656 -98.390625 317.316406 -96.363281 304.109375 -92.3125 C 290.910156 -88.269531 277.921875 -82.628906 265.140625 -75.390625 C 258.753906 -88.597656 253.429688 -103.1875 249.171875 -119.15625 C 244.910156 -135.125 242.144531 -151.414062 240.875 -168.03125 C 258.332031 -174.84375 276.320312 -180.054688 294.84375 -183.671875 C 313.375 -187.296875 330.304688 -189.109375 345.640625 -189.109375 C 378.441406 -189.109375 407.726562 -183.675781 433.5 -172.8125 C 459.269531 -161.957031 479.609375 -146.203125 494.515625 -125.546875 C 509.421875 -104.890625 516.875 -79.648438 516.875 -49.828125 C 516.875 -23.421875 509.421875 0.957031 494.515625 23.3125 C 479.609375 45.675781 459.269531 63.457031 433.5 76.65625 C 407.726562 89.863281 378.441406 96.46875 345.640625 96.46875 C 307.304688 96.46875 273.867188 88.269531 245.328125 71.875 C 216.796875 55.476562 193.160156 33.4375 174.421875 5.75 C 162.921875 23.632812 153.226562 43.863281 145.34375 66.4375 C 137.46875 89.019531 133.53125 110.53125 133.53125 130.96875 L 0.640625 130.96875 C 0.640625 95.625 6.492188 63.148438 18.203125 33.546875 C 29.921875 3.941406 45.679688 -22.785156 65.484375 -46.640625 C 85.296875 -70.492188 107.125 -91.363281 130.96875 -109.25 C 128.84375 -121.175781 127.25 -133.207031 126.1875 -145.34375 C 125.125 -157.488281 124.59375 -169.953125 124.59375 -182.734375 C 124.59375 -231.285156 129.703125 -277.601562 139.921875 -321.6875 C 150.140625 -365.769531 165.679688 -404.957031 186.546875 -439.25 C 207.421875 -473.539062 234.363281 -500.585938 267.375 -520.390625 C 300.382812 -540.191406 339.46875 -550.09375 384.625 -550.09375 C 433.601562 -550.09375 472.570312 -543.273438 501.53125 -529.640625 C 530.5 -516.015625 551.476562 -497.804688 564.46875 -475.015625 C 577.457031 -452.234375 583.953125 -427.210938 583.953125 -399.953125 C 583.953125 -365.453125 574.582031 -335.316406 555.84375 -309.546875 C 537.101562 -283.773438 511.332031 -263.753906 478.53125 -249.484375 C 445.738281 -235.222656 408.046875 -228.09375 365.453125 -228.09375 C 321.160156 -228.09375 274.519531 -232.988281 225.53125 -242.78125 C 225.101562 -236.820312 224.78125 -230.859375 224.5625 -224.890625 C 224.351562 -218.929688 224.25 -212.96875 224.25 -207 C 224.25 -166.96875 228.507812 -131.191406 237.03125 -99.671875 C 245.550781 -68.148438 258.96875 -43.335938 277.28125 -25.234375 C 295.601562 -7.128906 319.457031 1.921875 348.84375 1.921875 Z M 137.359375 -378.234375 C 129.691406 -359.066406 123.941406 -341.070312 120.109375 -324.25 C 116.273438 -307.425781 113.296875 -290.921875 111.171875 -274.734375 C 76.242188 -287.503906 41.738281 -302.726562 7.65625 -320.40625 C -26.414062 -338.082031 -58.785156 -358 -89.453125 -380.15625 L -89.453125 -526.453125 C -56.648438 -498.347656 -20.867188 -471.410156 17.890625 -445.640625 C 56.648438 -419.867188 96.472656 -397.398438 137.359375 -378.234375 Z M 383.984375 -448.515625 C 359.703125 -448.515625 338.613281 -443.507812 320.71875 -433.5 C 302.832031 -423.488281 287.820312 -409.960938 275.6875 -392.921875 C 263.550781 -375.890625 253.648438 -357.148438 245.984375 -336.703125 C 290.273438 -323.078125 333.082031 -316.265625 374.40625 -316.265625 C 403.363281 -316.265625 427.101562 -322.4375 445.625 -334.78125 C 464.15625 -347.132812 473.421875 -362.894531 473.421875 -382.0625 C 473.421875 -401.226562 465.753906 -417.09375 450.421875 -429.65625 C 435.085938 -442.226562 412.941406 -448.515625 383.984375 -448.515625 Z M 383.984375 -448.515625 "/></g></g></g></g></g><g clip-path="url(#cbc675c09c)"><g transform="matrix(1, 0, 0, 1, 615, 153)"><g clip-path="url(#184db1a555)"><g fill="#000000" fill-opacity="1"><g transform="translate(0.905657, 662.07813)"><g><path d="M 414.03125 -423.28125 C 414.03125 -406.113281 410.726562 -385.753906 404.125 -362.203125 C 397.519531 -338.648438 387.503906 -313.882812 374.078125 -287.90625 C 360.648438 -261.9375 343.257812 -236.40625 321.90625 -211.3125 C 300.5625 -186.21875 275.359375 -162.882812 246.296875 -141.3125 C 217.242188 -119.738281 183.898438 -101.796875 146.265625 -87.484375 C 108.628906 -73.179688 66.476562 -64.269531 19.8125 -60.75 L 19.8125 -178.296875 C 48.863281 -180.929688 74.835938 -185.550781 97.734375 -192.15625 C 93.765625 -208.882812 90.457031 -227.925781 87.8125 -249.28125 C 85.175781 -270.632812 83.859375 -297.597656 83.859375 -330.171875 C 83.859375 -363.191406 87.929688 -395.769531 96.078125 -427.90625 C 104.222656 -460.039062 116.109375 -489.09375 131.734375 -515.0625 C 147.367188 -541.039062 166.191406 -561.84375 188.203125 -577.46875 C 210.210938 -593.09375 235.082031 -600.90625 262.8125 -600.90625 C 297.15625 -600.90625 325.550781 -593.421875 348 -578.453125 C 370.445312 -563.492188 387.0625 -542.695312 397.84375 -516.0625 C 408.632812 -489.425781 414.03125 -458.5 414.03125 -423.28125 Z M 198.109375 -241.6875 C 223.203125 -260.613281 243.34375 -281.191406 258.53125 -303.421875 C 273.71875 -325.660156 284.722656 -347.675781 291.546875 -369.46875 C 298.367188 -391.257812 301.78125 -410.078125 301.78125 -425.921875 C 301.78125 -468.179688 288.789062 -489.3125 262.8125 -489.3125 C 250.488281 -489.3125 239.921875 -483.804688 231.109375 -472.796875 C 222.304688 -461.796875 215.046875 -447.488281 209.328125 -429.875 C 203.609375 -412.269531 199.425781 -393.234375 196.78125 -372.765625 C 194.144531 -352.296875 192.828125 -332.59375 192.828125 -313.65625 C 192.828125 -300.007812 193.265625 -287.132812 194.140625 -275.03125 C 195.023438 -262.925781 196.347656 -251.8125 198.109375 -241.6875 Z M 233.09375 -110.9375 C 252.03125 -69.113281 277.234375 -37.742188 308.703125 -16.828125 C 340.179688 4.074219 372.867188 16.953125 406.765625 21.796875 L 406.765625 166.40625 C 381.234375 163.320312 354.929688 155.945312 327.859375 144.28125 C 300.785156 132.613281 274.8125 116.875 249.9375 97.0625 C 225.0625 77.257812 202.390625 53.597656 181.921875 26.078125 C 161.453125 -1.429688 144.613281 -32.578125 131.40625 -67.359375 C 148.132812 -70.878906 161.5625 -74.835938 171.6875 -79.234375 C 181.8125 -83.640625 191.382812 -88.484375 200.40625 -93.765625 C 209.4375 -99.046875 220.332031 -104.769531 233.09375 -110.9375 Z M 233.09375 -110.9375 "/></g></g></g></g></g></g></g></g></svg>